<svg id="visual" viewBox="0 0 40 40" width="40" height="40" xmlns="http://www.w3.org/2000/svg" xmlns:xlink="http://www.w3.org/1999/xlink" version="1.1"><rect x="0" y="0" width="40" height="40" fill="#030f08"></rect><path d="M0 29L0.3 29.2C0.7 29.3 1.3 29.7 2 29.8C2.7 30 3.3 30 4.2 29.5C5 29 6 28 6.8 27.3C7.7 26.7 8.3 26.3 9 25.8C9.7 25.3 10.3 24.7 11 25.2C11.7 25.7 12.3 27.3 13.2 27.5C14 27.7 15 26.3 15.8 26.2C16.7 26 17.3 27 18 26.8C18.7 26.7 19.3 25.3 20 25.3C20.7 25.3 21.3 26.7 22 26.3C22.7 26 23.3 24 24.2 24.2C25 24.3 26 26.7 26.8 27C27.7 27.3 28.3 25.7 29 25.7C29.7 25.7 30.3 27.3 31 28.5C31.7 29.7 32.3 30.3 33.2 30.2C34 30 35 29 35.8 28.8C36.7 28.7 37.3 29.3 38 29C38.7 28.7 39.3 27.3 39.7 26.7L40 26L40 41L39.7 41C39.3 41 38.7 41 38 41C37.3 41 36.7 41 35.8 41C35 41 34 41 33.2 41C32.3 41 31.7 41 31 41C30.3 41 29.7 41 29 41C28.3 41 27.7 41 26.8 41C26 41 25 41 24.2 41C23.3 41 22.7 41 22 41C21.3 41 20.7 41 20 41C19.3 41 18.7 41 18 41C17.3 41 16.7 41 15.8 41C15 41 14 41 13.2 41C12.3 41 11.7 41 11 41C10.3 41 9.7 41 9 41C8.3 41 7.7 41 6.8 41C6 41 5 41 4.2 41C3.3 41 2.7 41 2 41C1.3 41 0.7 41 0.3 41L0 41Z" fill="#d0bfff"></path><path d="M0 28L0.3 27.7C0.7 27.3 1.3 26.7 2 27.2C2.7 27.7 3.3 29.3 4.2 29.5C5 29.7 6 28.3 6.8 28.3C7.7 28.3 8.3 29.7 9 29.5C9.7 29.3 10.3 27.7 11 27C11.7 26.3 12.3 26.7 13.2 27.7C14 28.7 15 30.3 15.8 30.3C16.7 30.3 17.3 28.7 18 28.3C18.7 28 19.3 29 20 29.2C20.7 29.3 21.3 28.7 22 28.5C22.7 28.3 23.3 28.7 24.2 29C25 29.3 26 29.7 26.8 29.7C27.7 29.7 28.3 29.3 29 29.7C29.7 30 30.3 31 31 31.5C31.7 32 32.3 32 33.2 32C34 32 35 32 35.8 31C36.7 30 37.3 28 38 27.8C38.7 27.7 39.3 29.3 39.7 30.2L40 31L40 41L39.7 41C39.3 41 38.7 41 38 41C37.3 41 36.7 41 35.8 41C35 41 34 41 33.2 41C32.3 41 31.7 41 31 41C30.3 41 29.7 41 29 41C28.3 41 27.7 41 26.8 41C26 41 25 41 24.2 41C23.3 41 22.7 41 22 41C21.3 41 20.7 41 20 41C19.3 41 18.7 41 18 41C17.3 41 16.7 41 15.8 41C15 41 14 41 13.2 41C12.3 41 11.7 41 11 41C10.3 41 9.7 41 9 41C8.3 41 7.7 41 6.8 41C6 41 5 41 4.2 41C3.3 41 2.7 41 2 41C1.3 41 0.7 41 0.3 41L0 41Z" fill="#e6def7"></path><path d="M0 32L0.3 31.7C0.7 31.3 1.3 30.7 2 30.3C2.7 30 3.3 30 4.2 30.2C5 30.3 6 30.7 6.8 30.3C7.7 30 8.3 29 9 29.2C9.7 29.3 10.3 30.7 11 31.3C11.7 32 12.3 32 13.2 31.7C14 31.3 15 30.7 15.8 30.8C16.7 31 17.3 32 18 32.5C18.7 33 19.3 33 20 33.2C20.7 33.3 21.3 33.7 22 33.5C22.7 33.3 23.3 32.7 24.2 31.7C25 30.7 26 29.3 26.8 28.8C27.7 28.3 28.3 28.7 29 28.8C29.7 29 30.3 29 31 29.8C31.7 30.7 32.3 32.3 33.2 33.2C34 34 35 34 35.8 33.2C36.7 32.3 37.3 30.7 38 30.3C38.7 30 39.3 31 39.7 31.5L40 32L40 41L39.7 41C39.3 41 38.7 41 38 41C37.3 41 36.7 41 35.8 41C35 41 34 41 33.2 41C32.3 41 31.7 41 31 41C30.3 41 29.7 41 29 41C28.3 41 27.7 41 26.8 41C26 41 25 41 24.2 41C23.3 41 22.7 41 22 41C21.3 41 20.7 41 20 41C19.3 41 18.7 41 18 41C17.3 41 16.7 41 15.8 41C15 41 14 41 13.2 41C12.3 41 11.7 41 11 41C10.3 41 9.7 41 9 41C8.3 41 7.7 41 6.8 41C6 41 5 41 4.2 41C3.3 41 2.7 41 2 41C1.3 41 0.7 41 0.3 41L0 41Z" fill="#f2f2f2"></path><path d="M0 31L0.3 31.7C0.7 32.3 1.3 33.7 2 34.2C2.7 34.7 3.3 34.3 4.2 34.5C5 34.7 6 35.3 6.8 35.3C7.7 35.3 8.3 34.7 9 34.3C9.7 34 10.3 34 11 33.5C11.7 33 12.3 32 13.2 31.8C14 31.7 15 32.3 15.8 32.5C16.7 32.7 17.3 32.3 18 32.2C18.7 32 19.3 32 20 32C20.7 32 21.3 32 22 31.8C22.7 31.7 23.3 31.3 24.2 31.2C25 31 26 31 26.8 31.3C27.7 31.7 28.3 32.3 29 32.5C29.7 32.7 30.3 32.3 31 32.2C31.7 32 32.3 32 33.2 32.3C34 32.7 35 33.3 35.8 34C36.7 34.7 37.3 35.3 38 35.2C38.7 35 39.3 34 39.7 33.5L40 33L40 41L39.7 41C39.3 41 38.7 41 38 41C37.3 41 36.7 41 35.8 41C35 41 34 41 33.2 41C32.3 41 31.7 41 31 41C30.3 41 29.7 41 29 41C28.3 41 27.7 41 26.8 41C26 41 25 41 24.2 41C23.3 41 22.7 41 22 41C21.3 41 20.7 41 20 41C19.3 41 18.7 41 18 41C17.3 41 16.7 41 15.8 41C15 41 14 41 13.2 41C12.3 41 11.7 41 11 41C10.3 41 9.7 41 9 41C8.3 41 7.7 41 6.8 41C6 41 5 41 4.2 41C3.3 41 2.7 41 2 41C1.3 41 0.7 41 0.3 41L0 41Z" fill="#e6def7"></path><path d="M0 34L0.3 34.3C0.7 34.7 1.3 35.3 2 35.8C2.7 36.3 3.3 36.7 4.2 36.7C5 36.7 6 36.3 6.8 36.3C7.7 36.3 8.3 36.7 9 36.7C9.7 36.7 10.3 36.3 11 36C11.7 35.7 12.3 35.3 13.2 35.2C14 35 15 35 15.8 34.8C16.7 34.7 17.3 34.3 18 34.3C18.7 34.3 19.3 34.7 20 35.3C20.7 36 21.3 37 22 37.3C22.7 37.7 23.3 37.3 24.2 36.8C25 36.3 26 35.7 26.8 35.2C27.7 34.7 28.3 34.3 29 34.2C29.7 34 30.3 34 31 34.5C31.7 35 32.3 36 33.2 36C34 36 35 35 35.8 34.8C36.7 34.7 37.3 35.3 38 35.3C38.7 35.3 39.3 34.7 39.7 34.3L40 34L40 41L39.7 41C39.3 41 38.7 41 38 41C37.3 41 36.7 41 35.8 41C35 41 34 41 33.2 41C32.3 41 31.7 41 31 41C30.3 41 29.7 41 29 41C28.3 41 27.7 41 26.8 41C26 41 25 41 24.2 41C23.3 41 22.7 41 22 41C21.3 41 20.7 41 20 41C19.3 41 18.7 41 18 41C17.3 41 16.7 41 15.8 41C15 41 14 41 13.2 41C12.3 41 11.7 41 11 41C10.3 41 9.7 41 9 41C8.3 41 7.7 41 6.8 41C6 41 5 41 4.2 41C3.3 41 2.7 41 2 41C1.3 41 0.7 41 0.3 41L0 41Z" fill="#d0bfff"></path></svg>
